<svg width="13" height="13" viewBox="0 0 13 13" fill="none" xmlns="http://www.w3.org/2000/svg">
<g clip-path="url(#clip0)">
<path d="M0.812502 0.884821C-0.209081 1.94595 2.23517e-06 3.07315 2.23517e-06 6.49757C2.23517e-06 9.34132 -0.496165 12.1921 2.10059 12.8632C2.91146 13.0718 10.0961 13.0718 10.9059 12.8622C11.9871 12.5832 12.8668 11.7062 12.987 10.1771C13.0038 9.9637 13.0038 3.03524 12.9865 2.81749C12.8586 1.1887 11.856 0.249988 10.5349 0.0598628C10.2321 0.0159878 10.1714 0.00298778 8.61792 0.000279445C3.10754 0.00298778 1.89963 -0.242387 0.812502 0.884821Z" fill="url(#paint0_linear)"/>
<path d="M6.49891 1.70043C4.53212 1.70043 2.66445 1.52547 1.95108 3.35631C1.65641 4.11247 1.6992 5.09452 1.6992 6.50068C1.6992 7.7346 1.65966 8.89431 1.95108 9.64452C2.66283 11.4764 4.54566 11.3009 6.49783 11.3009C8.3812 11.3009 10.3231 11.497 11.0451 9.64452C11.3403 8.88077 11.297 7.91335 11.297 6.50068C11.297 4.62543 11.4005 3.41481 10.491 2.50589C9.57016 1.58506 8.32487 1.70043 6.49675 1.70043H6.49891ZM6.06883 2.56547C10.1714 2.55897 10.6936 2.10289 10.4054 8.43877C10.303 10.6796 8.59679 10.4337 6.49945 10.4337C2.67529 10.4337 2.56533 10.3243 2.56533 6.49852C2.56533 2.62831 2.86866 2.56764 6.06883 2.56439V2.56547ZM9.061 3.36227C8.74304 3.36227 8.4852 3.6201 8.4852 3.93806C8.4852 4.25602 8.74304 4.51385 9.061 4.51385C9.37895 4.51385 9.63679 4.25602 9.63679 3.93806C9.63679 3.6201 9.37895 3.36227 9.061 3.36227ZM6.49891 4.03556C5.1377 4.03556 4.03433 5.13948 4.03433 6.50068C4.03433 7.86189 5.1377 8.96527 6.49891 8.96527C7.86012 8.96527 8.96295 7.86189 8.96295 6.50068C8.96295 5.13948 7.86012 4.03556 6.49891 4.03556ZM6.49891 4.9006C8.61412 4.9006 8.61683 8.10077 6.49891 8.10077C4.38425 8.10077 4.381 4.9006 6.49891 4.9006Z" fill="white"/>
</g>
<defs>
<linearGradient id="paint0_linear" x1="0.83743" y1="12.17" x2="12.9196" y2="1.71302" gradientUnits="userSpaceOnUse">
<stop stop-color="#FFDD55"/>
<stop offset="0.5" stop-color="#FF543E"/>
<stop offset="1" stop-color="#C837AB"/>
</linearGradient>
<clipPath id="clip0">
<rect width="13" height="13" fill="white"/>
</clipPath>
</defs>
</svg>
